<?xml version="1.0" standalone="no"?>
<!DOCTYPE svg PUBLIC "-//W3C//DTD SVG 20010904//EN"
 "http://www.w3.org/TR/2001/REC-SVG-20010904/DTD/svg10.dtd">
<svg version="1.0" xmlns="http://www.w3.org/2000/svg"
 width="120.000000pt" height="120.000000pt" viewBox="0 0 120.000000 120.000000"
 preserveAspectRatio="xMidYMid meet">
<metadata>
Created by potrace 1.11, written by Peter Selinger 2001-2013
</metadata>
<g transform="translate(0.000000,120.000000) scale(0.100000,-0.100000)"
fill="#000000" stroke="none">
<path d="M301 1163 c-58 -73 -71 -255 -29 -398 21 -73 22 -84 9 -124 -9 -27
-31 -61 -61 -90 -72 -70 -95 -123 -92 -216 2 -62 22 -113 64 -161 31 -35 31
-37 13 -50 -10 -8 -14 -14 -9 -14 6 0 15 5 21 11 6 6 17 8 23 4 8 -5 -2 -20
-31 -47 l-44 -40 47 37 c54 42 90 44 45 3 -15 -14 -27 -28 -27 -32 0 -4 12 5
28 19 21 21 33 25 57 19 17 -3 57 -8 90 -9 60 -4 135 -23 135 -34 0 -11 114
-6 135 6 24 13 81 25 139 28 22 1 57 5 77 9 27 6 38 4 48 -8 8 -9 18 -16 24
-16 6 0 1 7 -12 16 -16 12 -20 19 -12 27 8 8 18 4 36 -13 18 -17 24 -19 20 -8
-4 9 -13 19 -21 22 -22 8 -17 29 6 23 11 -3 17 -1 14 4 -3 5 6 23 21 40 39 48
57 87 62 143 3 28 5 53 6 56 2 12 -17 78 -30 104 -8 16 -37 50 -64 75 -52 49
-86 128 -70 160 9 17 38 144 40 174 6 114 -3 187 -32 245 -29 58 -54 64 -92
25 -58 -61 -91 -162 -94 -286 -1 -27 -2 -28 -38 -21 -48 10 -135 10 -193 1
l-45 -7 -2 61 c-4 116 -61 246 -123 279 -15 8 -23 5 -39 -17z"/>
<path d="M1016 57 c3 -10 9 -15 12 -12 3 3 0 11 -7 18 -10 9 -11 8 -5 -6z"/>
<path d="M990 30 c30 -26 38 -26 15 0 -10 11 -23 20 -28 20 -6 0 0 -9 13 -20z"/>
<path d="M200 25 c-7 -9 -8 -15 -2 -15 5 0 12 7 16 15 3 8 4 15 2 15 -2 0 -9
-7 -16 -15z"/>
</g>
</svg>
